<?xml version="1.0" encoding="utf-8" standalone="no"?>
<!DOCTYPE svg PUBLIC "-//W3C//DTD SVG 1.1//EN"
  "http://www.w3.org/Graphics/SVG/1.1/DTD/svg11.dtd">
<svg xmlns:xlink="http://www.w3.org/1999/xlink" width="515.33875pt" height="228.11025pt" viewBox="0 0 515.33875 228.11025" xmlns="http://www.w3.org/2000/svg" version="1.1">
 <metadata>
  <rdf:RDF xmlns:dc="http://purl.org/dc/elements/1.1/" xmlns:cc="http://creativecommons.org/ns#" xmlns:rdf="http://www.w3.org/1999/02/22-rdf-syntax-ns#">
   <cc:Work>
    <dc:type rdf:resource="http://purl.org/dc/dcmitype/StillImage"/>
    <dc:date>2026-06-08T14:59:01.109055</dc:date>
    <dc:format>image/svg+xml</dc:format>
    <dc:creator>
     <cc:Agent>
      <dc:title>Matplotlib v3.10.8, https://matplotlib.org/</dc:title>
     </cc:Agent>
    </dc:creator>
   </cc:Work>
  </rdf:RDF>
 </metadata>
 <defs>
  <style type="text/css">*{stroke-linejoin: round; stroke-linecap: butt}</style>
 </defs>
 <g id="figure_1">
  <g id="patch_1">
   <path d="M 0 228.11025 
L 515.33875 228.11025 
L 515.33875 0 
L 0 0 
z
" style="fill: #ffffff"/>
  </g>
  <g id="axes_1">
   <g id="patch_2">
    <path d="M 29.76875 195.27775 
L 252.13375 195.27775 
L 252.13375 20.0715 
L 29.76875 20.0715 
z
" style="fill: #ffffff"/>
   </g>
   <g id="matplotlib.axis_1">
    <g id="xtick_1">
     <g id="line2d_1">
      <path d="M 39.87625 195.27775 
L 39.87625 20.0715 
" clip-path="url(#p8916fe6a3a)" style="fill: none; stroke: #b0b0b0; stroke-opacity: 0.25; stroke-width: 0.8; stroke-linecap: square"/>
     </g>
     <g id="line2d_2">
      <defs>
       <path id="mdbb62db430" d="M 0 0 
L 0 3.5 
" style="stroke: #000000; stroke-width: 0.8"/>
      </defs>
      <g>
       <use xlink:href="#mdbb62db430" x="39.87625" y="195.27775" style="stroke: #000000; stroke-width: 0.8"/>
      </g>
     </g>
     <g id="text_1">
      <text style="font-size: 8px; font-family: 'Arial', 'Helvetica', 'DejaVu Sans', sans-serif; text-anchor: middle" x="39.87625" y="208.004" transform="rotate(-0 39.87625 208.004)">0.75</text>
     </g>
    </g>
    <g id="xtick_2">
     <g id="line2d_3">
      <path d="M 80.30625 195.27775 
L 80.30625 20.0715 
" clip-path="url(#p8916fe6a3a)" style="fill: none; stroke: #b0b0b0; stroke-opacity: 0.25; stroke-width: 0.8; stroke-linecap: square"/>
     </g>
     <g id="line2d_4">
      <g>
       <use xlink:href="#mdbb62db430" x="80.30625" y="195.27775" style="stroke: #000000; stroke-width: 0.8"/>
      </g>
     </g>
     <g id="text_2">
      <text style="font-size: 8px; font-family: 'Arial', 'Helvetica', 'DejaVu Sans', sans-serif; text-anchor: middle" x="80.30625" y="208.004" transform="rotate(-0 80.30625 208.004)">0.80</text>
     </g>
    </g>
    <g id="xtick_3">
     <g id="line2d_5">
      <path d="M 120.73625 195.27775 
L 120.73625 20.0715 
" clip-path="url(#p8916fe6a3a)" style="fill: none; stroke: #b0b0b0; stroke-opacity: 0.25; stroke-width: 0.8; stroke-linecap: square"/>
     </g>
     <g id="line2d_6">
      <g>
       <use xlink:href="#mdbb62db430" x="120.73625" y="195.27775" style="stroke: #000000; stroke-width: 0.8"/>
      </g>
     </g>
     <g id="text_3">
      <text style="font-size: 8px; font-family: 'Arial', 'Helvetica', 'DejaVu Sans', sans-serif; text-anchor: middle" x="120.73625" y="208.004" transform="rotate(-0 120.73625 208.004)">0.85</text>
     </g>
    </g>
    <g id="xtick_4">
     <g id="line2d_7">
      <path d="M 161.16625 195.27775 
L 161.16625 20.0715 
" clip-path="url(#p8916fe6a3a)" style="fill: none; stroke: #b0b0b0; stroke-opacity: 0.25; stroke-width: 0.8; stroke-linecap: square"/>
     </g>
     <g id="line2d_8">
      <g>
       <use xlink:href="#mdbb62db430" x="161.16625" y="195.27775" style="stroke: #000000; stroke-width: 0.8"/>
      </g>
     </g>
     <g id="text_4">
      <text style="font-size: 8px; font-family: 'Arial', 'Helvetica', 'DejaVu Sans', sans-serif; text-anchor: middle" x="161.16625" y="208.004" transform="rotate(-0 161.16625 208.004)">0.90</text>
     </g>
    </g>
    <g id="xtick_5">
     <g id="line2d_9">
      <path d="M 201.59625 195.27775 
L 201.59625 20.0715 
" clip-path="url(#p8916fe6a3a)" style="fill: none; stroke: #b0b0b0; stroke-opacity: 0.25; stroke-width: 0.8; stroke-linecap: square"/>
     </g>
     <g id="line2d_10">
      <g>
       <use xlink:href="#mdbb62db430" x="201.59625" y="195.27775" style="stroke: #000000; stroke-width: 0.8"/>
      </g>
     </g>
     <g id="text_5">
      <text style="font-size: 8px; font-family: 'Arial', 'Helvetica', 'DejaVu Sans', sans-serif; text-anchor: middle" x="201.59625" y="208.004" transform="rotate(-0 201.59625 208.004)">0.95</text>
     </g>
    </g>
    <g id="xtick_6">
     <g id="line2d_11">
      <path d="M 242.02625 195.27775 
L 242.02625 20.0715 
" clip-path="url(#p8916fe6a3a)" style="fill: none; stroke: #b0b0b0; stroke-opacity: 0.25; stroke-width: 0.8; stroke-linecap: square"/>
     </g>
     <g id="line2d_12">
      <g>
       <use xlink:href="#mdbb62db430" x="242.02625" y="195.27775" style="stroke: #000000; stroke-width: 0.8"/>
      </g>
     </g>
     <g id="text_6">
      <text style="font-size: 8px; font-family: 'Arial', 'Helvetica', 'DejaVu Sans', sans-serif; text-anchor: middle" x="242.02625" y="208.004" transform="rotate(-0 242.02625 208.004)">1.00</text>
     </g>
    </g>
    <g id="text_7">
     <text style="font-size: 8px; font-family: 'Arial', 'Helvetica', 'DejaVu Sans', sans-serif; text-anchor: middle" x="140.95125" y="219.32025" transform="rotate(-0 140.95125 219.32025)">Direct API price</text>
    </g>
   </g>
   <g id="matplotlib.axis_2">
    <g id="ytick_1">
     <g id="line2d_13">
      <path d="M 29.76875 173.981237 
L 252.13375 173.981237 
" clip-path="url(#p8916fe6a3a)" style="fill: none; stroke: #b0b0b0; stroke-opacity: 0.25; stroke-width: 0.8; stroke-linecap: square"/>
     </g>
     <g id="line2d_14">
      <defs>
       <path id="mef4928baba" d="M 0 0 
L -3.5 0 
" style="stroke: #000000; stroke-width: 0.8"/>
      </defs>
      <g>
       <use xlink:href="#mef4928baba" x="29.76875" y="173.981237" style="stroke: #000000; stroke-width: 0.8"/>
      </g>
     </g>
     <g id="text_8">
      <text style="font-size: 8px; font-family: 'Arial', 'Helvetica', 'DejaVu Sans', sans-serif; text-anchor: end" x="22.76875" y="176.844362" transform="rotate(-0 22.76875 176.844362)">2.25</text>
     </g>
    </g>
    <g id="ytick_2">
     <g id="line2d_15">
      <path d="M 29.76875 143.91791 
L 252.13375 143.91791 
" clip-path="url(#p8916fe6a3a)" style="fill: none; stroke: #b0b0b0; stroke-opacity: 0.25; stroke-width: 0.8; stroke-linecap: square"/>
     </g>
     <g id="line2d_16">
      <g>
       <use xlink:href="#mef4928baba" x="29.76875" y="143.91791" style="stroke: #000000; stroke-width: 0.8"/>
      </g>
     </g>
     <g id="text_9">
      <text style="font-size: 8px; font-family: 'Arial', 'Helvetica', 'DejaVu Sans', sans-serif; text-anchor: end" x="22.76875" y="146.781035" transform="rotate(-0 22.76875 146.781035)">2.30</text>
     </g>
    </g>
    <g id="ytick_3">
     <g id="line2d_17">
      <path d="M 29.76875 113.854583 
L 252.13375 113.854583 
" clip-path="url(#p8916fe6a3a)" style="fill: none; stroke: #b0b0b0; stroke-opacity: 0.25; stroke-width: 0.8; stroke-linecap: square"/>
     </g>
     <g id="line2d_18">
      <g>
       <use xlink:href="#mef4928baba" x="29.76875" y="113.854583" style="stroke: #000000; stroke-width: 0.8"/>
      </g>
     </g>
     <g id="text_10">
      <text style="font-size: 8px; font-family: 'Arial', 'Helvetica', 'DejaVu Sans', sans-serif; text-anchor: end" x="22.76875" y="116.717708" transform="rotate(-0 22.76875 116.717708)">2.35</text>
     </g>
    </g>
    <g id="ytick_4">
     <g id="line2d_19">
      <path d="M 29.76875 83.791256 
L 252.13375 83.791256 
" clip-path="url(#p8916fe6a3a)" style="fill: none; stroke: #b0b0b0; stroke-opacity: 0.25; stroke-width: 0.8; stroke-linecap: square"/>
     </g>
     <g id="line2d_20">
      <g>
       <use xlink:href="#mef4928baba" x="29.76875" y="83.791256" style="stroke: #000000; stroke-width: 0.8"/>
      </g>
     </g>
     <g id="text_11">
      <text style="font-size: 8px; font-family: 'Arial', 'Helvetica', 'DejaVu Sans', sans-serif; text-anchor: end" x="22.76875" y="86.654381" transform="rotate(-0 22.76875 86.654381)">2.40</text>
     </g>
    </g>
    <g id="ytick_5">
     <g id="line2d_21">
      <path d="M 29.76875 53.727929 
L 252.13375 53.727929 
" clip-path="url(#p8916fe6a3a)" style="fill: none; stroke: #b0b0b0; stroke-opacity: 0.25; stroke-width: 0.8; stroke-linecap: square"/>
     </g>
     <g id="line2d_22">
      <g>
       <use xlink:href="#mef4928baba" x="29.76875" y="53.727929" style="stroke: #000000; stroke-width: 0.8"/>
      </g>
     </g>
     <g id="text_12">
      <text style="font-size: 8px; font-family: 'Arial', 'Helvetica', 'DejaVu Sans', sans-serif; text-anchor: end" x="22.76875" y="56.591054" transform="rotate(-0 22.76875 56.591054)">2.45</text>
     </g>
    </g>
    <g id="ytick_6">
     <g id="line2d_23">
      <path d="M 29.76875 23.664602 
L 252.13375 23.664602 
" clip-path="url(#p8916fe6a3a)" style="fill: none; stroke: #b0b0b0; stroke-opacity: 0.25; stroke-width: 0.8; stroke-linecap: square"/>
     </g>
     <g id="line2d_24">
      <g>
       <use xlink:href="#mef4928baba" x="29.76875" y="23.664602" style="stroke: #000000; stroke-width: 0.8"/>
      </g>
     </g>
     <g id="text_13">
      <text style="font-size: 8px; font-family: 'Arial', 'Helvetica', 'DejaVu Sans', sans-serif; text-anchor: end" x="22.76875" y="26.527727" transform="rotate(-0 22.76875 26.527727)">2.50</text>
     </g>
    </g>
   </g>
   <g id="line2d_25">
    <path d="M 39.87625 119.906755 
L 96.47825 143.350514 
L 161.16625 165.734803 
L 242.02625 187.31383 
" clip-path="url(#p8916fe6a3a)" style="fill: none; stroke: #0072b2; stroke-width: 1.5; stroke-linecap: square"/>
    <defs>
     <path id="m5e87b72316" d="M 0 3 
C 0.795609 3 1.55874 2.683901 2.12132 2.12132 
C 2.683901 1.55874 3 0.795609 3 0 
C 3 -0.795609 2.683901 -1.55874 2.12132 -2.12132 
C 1.55874 -2.683901 0.795609 -3 0 -3 
C -0.795609 -3 -1.55874 -2.683901 -2.12132 -2.12132 
C -2.683901 -1.55874 -3 -0.795609 -3 0 
C -3 0.795609 -2.683901 1.55874 -2.12132 2.12132 
C -1.55874 2.683901 -0.795609 3 0 3 
z
" style="stroke: #0072b2"/>
    </defs>
    <g clip-path="url(#p8916fe6a3a)">
     <use xlink:href="#m5e87b72316" x="39.87625" y="119.906755" style="fill: #0072b2; stroke: #0072b2"/>
     <use xlink:href="#m5e87b72316" x="96.47825" y="143.350514" style="fill: #0072b2; stroke: #0072b2"/>
     <use xlink:href="#m5e87b72316" x="161.16625" y="165.734803" style="fill: #0072b2; stroke: #0072b2"/>
     <use xlink:href="#m5e87b72316" x="242.02625" y="187.31383" style="fill: #0072b2; stroke: #0072b2"/>
    </g>
   </g>
   <g id="line2d_26">
    <path d="M 39.87625 42.309723 
L 96.47825 78.72569 
L 161.16625 113.60486 
L 242.02625 147.759402 
" clip-path="url(#p8916fe6a3a)" style="fill: none; stroke: #d55e00; stroke-width: 1.5; stroke-linecap: square"/>
    <defs>
     <path id="m38266cd602" d="M 0 3 
C 0.795609 3 1.55874 2.683901 2.12132 2.12132 
C 2.683901 1.55874 3 0.795609 3 0 
C 3 -0.795609 2.683901 -1.55874 2.12132 -2.12132 
C 1.55874 -2.683901 0.795609 -3 0 -3 
C -0.795609 -3 -1.55874 -2.683901 -2.12132 -2.12132 
C -2.683901 -1.55874 -3 -0.795609 -3 0 
C -3 0.795609 -2.683901 1.55874 -2.12132 2.12132 
C -1.55874 2.683901 -0.795609 3 0 3 
z
" style="stroke: #d55e00"/>
    </defs>
    <g clip-path="url(#p8916fe6a3a)">
     <use xlink:href="#m38266cd602" x="39.87625" y="42.309723" style="fill: #d55e00; stroke: #d55e00"/>
     <use xlink:href="#m38266cd602" x="96.47825" y="78.72569" style="fill: #d55e00; stroke: #d55e00"/>
     <use xlink:href="#m38266cd602" x="161.16625" y="113.60486" style="fill: #d55e00; stroke: #d55e00"/>
     <use xlink:href="#m38266cd602" x="242.02625" y="147.759402" style="fill: #d55e00; stroke: #d55e00"/>
    </g>
   </g>
   <g id="line2d_27">
    <path d="M 39.87625 28.03542 
L 96.47825 68.586093 
L 161.16625 106.668814 
L 242.02625 143.717207 
" clip-path="url(#p8916fe6a3a)" style="fill: none; stroke: #009e73; stroke-width: 1.5; stroke-linecap: square"/>
    <defs>
     <path id="mbd6c1cfee0" d="M 0 3 
C 0.795609 3 1.55874 2.683901 2.12132 2.12132 
C 2.683901 1.55874 3 0.795609 3 0 
C 3 -0.795609 2.683901 -1.55874 2.12132 -2.12132 
C 1.55874 -2.683901 0.795609 -3 0 -3 
C -0.795609 -3 -1.55874 -2.683901 -2.12132 -2.12132 
C -2.683901 -1.55874 -3 -0.795609 -3 0 
C -3 0.795609 -2.683901 1.55874 -2.12132 2.12132 
C -1.55874 2.683901 -0.795609 3 0 3 
z
" style="stroke: #009e73"/>
    </defs>
    <g clip-path="url(#p8916fe6a3a)">
     <use xlink:href="#mbd6c1cfee0" x="39.87625" y="28.03542" style="fill: #009e73; stroke: #009e73"/>
     <use xlink:href="#mbd6c1cfee0" x="96.47825" y="68.586093" style="fill: #009e73; stroke: #009e73"/>
     <use xlink:href="#mbd6c1cfee0" x="161.16625" y="106.668814" style="fill: #009e73; stroke: #009e73"/>
     <use xlink:href="#mbd6c1cfee0" x="242.02625" y="143.717207" style="fill: #009e73; stroke: #009e73"/>
    </g>
   </g>
   <g id="line2d_28">
    <path d="M 39.87625 28.03542 
L 96.47825 68.586093 
L 161.16625 106.668814 
L 242.02625 143.717206 
" clip-path="url(#p8916fe6a3a)" style="fill: none; stroke: #e69f00; stroke-width: 1.5; stroke-linecap: square"/>
    <defs>
     <path id="m57b447d436" d="M 0 3 
C 0.795609 3 1.55874 2.683901 2.12132 2.12132 
C 2.683901 1.55874 3 0.795609 3 0 
C 3 -0.795609 2.683901 -1.55874 2.12132 -2.12132 
C 1.55874 -2.683901 0.795609 -3 0 -3 
C -0.795609 -3 -1.55874 -2.683901 -2.12132 -2.12132 
C -2.683901 -1.55874 -3 -0.795609 -3 0 
C -3 0.795609 -2.683901 1.55874 -2.12132 2.12132 
C -1.55874 2.683901 -0.795609 3 0 3 
z
" style="stroke: #e69f00"/>
    </defs>
    <g clip-path="url(#p8916fe6a3a)">
     <use xlink:href="#m57b447d436" x="39.87625" y="28.03542" style="fill: #e69f00; stroke: #e69f00"/>
     <use xlink:href="#m57b447d436" x="96.47825" y="68.586093" style="fill: #e69f00; stroke: #e69f00"/>
     <use xlink:href="#m57b447d436" x="161.16625" y="106.668814" style="fill: #e69f00; stroke: #e69f00"/>
     <use xlink:href="#m57b447d436" x="242.02625" y="143.717206" style="fill: #e69f00; stroke: #e69f00"/>
    </g>
   </g>
   <g id="patch_3">
    <path d="M 29.76875 195.27775 
L 29.76875 20.0715 
" style="fill: none; stroke: #000000; stroke-width: 0.8; stroke-linejoin: miter; stroke-linecap: square"/>
   </g>
   <g id="patch_4">
    <path d="M 29.76875 195.27775 
L 252.13375 195.27775 
" style="fill: none; stroke: #000000; stroke-width: 0.8; stroke-linejoin: miter; stroke-linecap: square"/>
   </g>
   <g id="text_14">
    <text style="font-size: 9.6px; font-family: 'Arial', 'Helvetica', 'DejaVu Sans', sans-serif; text-anchor: middle" x="140.95125" y="14.0715" transform="rotate(-0 140.95125 14.0715)">Inclusive value</text>
   </g>
   <g id="legend_1">
    <g id="patch_5">
     <path d="M 209.263125 75.347438 
L 247.23375 75.347438 
Q 248.63375 75.347438 248.63375 73.947438 
L 248.63375 24.9715 
Q 248.63375 23.5715 247.23375 23.5715 
L 209.263125 23.5715 
Q 207.863125 23.5715 207.863125 24.9715 
L 207.863125 73.947438 
Q 207.863125 75.347438 209.263125 75.347438 
z
" style="fill: #ffffff; opacity: 0.8; stroke: #cccccc; stroke-linejoin: miter"/>
    </g>
    <g id="text_15">
     <text style="font-size: 7px; font-family: 'Arial', 'Helvetica', 'DejaVu Sans', sans-serif; text-anchor: start" x="214.631797" y="31.467281" transform="rotate(-0 214.631797 31.467281)">Capacity</text>
    </g>
    <g id="line2d_29">
     <path d="M 210.663125 39.001031 
L 217.663125 39.001031 
L 224.663125 39.001031 
" style="fill: none; stroke: #0072b2; stroke-width: 1.5; stroke-linecap: square"/>
     <g>
      <use xlink:href="#m5e87b72316" x="217.663125" y="39.001031" style="fill: #0072b2; stroke: #0072b2"/>
     </g>
    </g>
    <g id="text_16">
     <text style="font-size: 7px; font-family: 'Arial', 'Helvetica', 'DejaVu Sans', sans-serif; text-anchor: start" x="230.263125" y="41.451031" transform="rotate(-0 230.263125 41.451031)">500</text>
    </g>
    <g id="line2d_30">
     <path d="M 210.663125 48.90275 
L 217.663125 48.90275 
L 224.663125 48.90275 
" style="fill: none; stroke: #d55e00; stroke-width: 1.5; stroke-linecap: square"/>
     <g>
      <use xlink:href="#m38266cd602" x="217.663125" y="48.90275" style="fill: #d55e00; stroke: #d55e00"/>
     </g>
    </g>
    <g id="text_17">
     <text style="font-size: 7px; font-family: 'Arial', 'Helvetica', 'DejaVu Sans', sans-serif; text-anchor: start" x="230.263125" y="51.35275" transform="rotate(-0 230.263125 51.35275)">1000</text>
    </g>
    <g id="line2d_31">
     <path d="M 210.663125 58.804469 
L 217.663125 58.804469 
L 224.663125 58.804469 
" style="fill: none; stroke: #009e73; stroke-width: 1.5; stroke-linecap: square"/>
     <g>
      <use xlink:href="#mbd6c1cfee0" x="217.663125" y="58.804469" style="fill: #009e73; stroke: #009e73"/>
     </g>
    </g>
    <g id="text_18">
     <text style="font-size: 7px; font-family: 'Arial', 'Helvetica', 'DejaVu Sans', sans-serif; text-anchor: start" x="230.263125" y="61.254469" transform="rotate(-0 230.263125 61.254469)">1500</text>
    </g>
    <g id="line2d_32">
     <path d="M 210.663125 68.706188 
L 217.663125 68.706188 
L 224.663125 68.706188 
" style="fill: none; stroke: #e69f00; stroke-width: 1.5; stroke-linecap: square"/>
     <g>
      <use xlink:href="#m57b447d436" x="217.663125" y="68.706188" style="fill: #e69f00; stroke: #e69f00"/>
     </g>
    </g>
    <g id="text_19">
     <text style="font-size: 7px; font-family: 'Arial', 'Helvetica', 'DejaVu Sans', sans-serif; text-anchor: start" x="230.263125" y="71.156188" transform="rotate(-0 230.263125 71.156188)">2000</text>
    </g>
   </g>
  </g>
  <g id="axes_2">
   <g id="patch_6">
    <path d="M 285.77375 195.27775 
L 508.13875 195.27775 
L 508.13875 20.0715 
L 285.77375 20.0715 
z
" style="fill: #ffffff"/>
   </g>
   <g id="matplotlib.axis_3">
    <g id="xtick_7">
     <g id="line2d_33">
      <path d="M 295.88125 195.27775 
L 295.88125 20.0715 
" clip-path="url(#pc81c257688)" style="fill: none; stroke: #b0b0b0; stroke-opacity: 0.25; stroke-width: 0.8; stroke-linecap: square"/>
     </g>
     <g id="line2d_34">
      <g>
       <use xlink:href="#mdbb62db430" x="295.88125" y="195.27775" style="stroke: #000000; stroke-width: 0.8"/>
      </g>
     </g>
     <g id="text_20">
      <text style="font-size: 8px; font-family: 'Arial', 'Helvetica', 'DejaVu Sans', sans-serif; text-anchor: middle" x="295.88125" y="208.004" transform="rotate(-0 295.88125 208.004)">0.75</text>
     </g>
    </g>
    <g id="xtick_8">
     <g id="line2d_35">
      <path d="M 336.31125 195.27775 
L 336.31125 20.0715 
" clip-path="url(#pc81c257688)" style="fill: none; stroke: #b0b0b0; stroke-opacity: 0.25; stroke-width: 0.8; stroke-linecap: square"/>
     </g>
     <g id="line2d_36">
      <g>
       <use xlink:href="#mdbb62db430" x="336.31125" y="195.27775" style="stroke: #000000; stroke-width: 0.8"/>
      </g>
     </g>
     <g id="text_21">
      <text style="font-size: 8px; font-family: 'Arial', 'Helvetica', 'DejaVu Sans', sans-serif; text-anchor: middle" x="336.31125" y="208.004" transform="rotate(-0 336.31125 208.004)">0.80</text>
     </g>
    </g>
    <g id="xtick_9">
     <g id="line2d_37">
      <path d="M 376.74125 195.27775 
L 376.74125 20.0715 
" clip-path="url(#pc81c257688)" style="fill: none; stroke: #b0b0b0; stroke-opacity: 0.25; stroke-width: 0.8; stroke-linecap: square"/>
     </g>
     <g id="line2d_38">
      <g>
       <use xlink:href="#mdbb62db430" x="376.74125" y="195.27775" style="stroke: #000000; stroke-width: 0.8"/>
      </g>
     </g>
     <g id="text_22">
      <text style="font-size: 8px; font-family: 'Arial', 'Helvetica', 'DejaVu Sans', sans-serif; text-anchor: middle" x="376.74125" y="208.004" transform="rotate(-0 376.74125 208.004)">0.85</text>
     </g>
    </g>
    <g id="xtick_10">
     <g id="line2d_39">
      <path d="M 417.17125 195.27775 
L 417.17125 20.0715 
" clip-path="url(#pc81c257688)" style="fill: none; stroke: #b0b0b0; stroke-opacity: 0.25; stroke-width: 0.8; stroke-linecap: square"/>
     </g>
     <g id="line2d_40">
      <g>
       <use xlink:href="#mdbb62db430" x="417.17125" y="195.27775" style="stroke: #000000; stroke-width: 0.8"/>
      </g>
     </g>
     <g id="text_23">
      <text style="font-size: 8px; font-family: 'Arial', 'Helvetica', 'DejaVu Sans', sans-serif; text-anchor: middle" x="417.17125" y="208.004" transform="rotate(-0 417.17125 208.004)">0.90</text>
     </g>
    </g>
    <g id="xtick_11">
     <g id="line2d_41">
      <path d="M 457.60125 195.27775 
L 457.60125 20.0715 
" clip-path="url(#pc81c257688)" style="fill: none; stroke: #b0b0b0; stroke-opacity: 0.25; stroke-width: 0.8; stroke-linecap: square"/>
     </g>
     <g id="line2d_42">
      <g>
       <use xlink:href="#mdbb62db430" x="457.60125" y="195.27775" style="stroke: #000000; stroke-width: 0.8"/>
      </g>
     </g>
     <g id="text_24">
      <text style="font-size: 8px; font-family: 'Arial', 'Helvetica', 'DejaVu Sans', sans-serif; text-anchor: middle" x="457.60125" y="208.004" transform="rotate(-0 457.60125 208.004)">0.95</text>
     </g>
    </g>
    <g id="xtick_12">
     <g id="line2d_43">
      <path d="M 498.03125 195.27775 
L 498.03125 20.0715 
" clip-path="url(#pc81c257688)" style="fill: none; stroke: #b0b0b0; stroke-opacity: 0.25; stroke-width: 0.8; stroke-linecap: square"/>
     </g>
     <g id="line2d_44">
      <g>
       <use xlink:href="#mdbb62db430" x="498.03125" y="195.27775" style="stroke: #000000; stroke-width: 0.8"/>
      </g>
     </g>
     <g id="text_25">
      <text style="font-size: 8px; font-family: 'Arial', 'Helvetica', 'DejaVu Sans', sans-serif; text-anchor: middle" x="498.03125" y="208.004" transform="rotate(-0 498.03125 208.004)">1.00</text>
     </g>
    </g>
    <g id="text_26">
     <text style="font-size: 8px; font-family: 'Arial', 'Helvetica', 'DejaVu Sans', sans-serif; text-anchor: middle" x="396.95625" y="219.32025" transform="rotate(-0 396.95625 219.32025)">Direct API price</text>
    </g>
   </g>
   <g id="matplotlib.axis_4">
    <g id="ytick_7">
     <g id="line2d_45">
      <path d="M 285.77375 192.097219 
L 508.13875 192.097219 
" clip-path="url(#pc81c257688)" style="fill: none; stroke: #b0b0b0; stroke-opacity: 0.25; stroke-width: 0.8; stroke-linecap: square"/>
     </g>
     <g id="line2d_46">
      <g>
       <use xlink:href="#mef4928baba" x="285.77375" y="192.097219" style="stroke: #000000; stroke-width: 0.8"/>
      </g>
     </g>
     <g id="text_27">
      <text style="font-size: 8px; font-family: 'Arial', 'Helvetica', 'DejaVu Sans', sans-serif; text-anchor: end" x="278.77375" y="194.960344" transform="rotate(-0 278.77375 194.960344)">3500</text>
     </g>
    </g>
    <g id="ytick_8">
     <g id="line2d_47">
      <path d="M 285.77375 159.681371 
L 508.13875 159.681371 
" clip-path="url(#pc81c257688)" style="fill: none; stroke: #b0b0b0; stroke-opacity: 0.25; stroke-width: 0.8; stroke-linecap: square"/>
     </g>
     <g id="line2d_48">
      <g>
       <use xlink:href="#mef4928baba" x="285.77375" y="159.681371" style="stroke: #000000; stroke-width: 0.8"/>
      </g>
     </g>
     <g id="text_28">
      <text style="font-size: 8px; font-family: 'Arial', 'Helvetica', 'DejaVu Sans', sans-serif; text-anchor: end" x="278.77375" y="162.544496" transform="rotate(-0 278.77375 162.544496)">4000</text>
     </g>
    </g>
    <g id="ytick_9">
     <g id="line2d_49">
      <path d="M 285.77375 127.265523 
L 508.13875 127.265523 
" clip-path="url(#pc81c257688)" style="fill: none; stroke: #b0b0b0; stroke-opacity: 0.25; stroke-width: 0.8; stroke-linecap: square"/>
     </g>
     <g id="line2d_50">
      <g>
       <use xlink:href="#mef4928baba" x="285.77375" y="127.265523" style="stroke: #000000; stroke-width: 0.8"/>
      </g>
     </g>
     <g id="text_29">
      <text style="font-size: 8px; font-family: 'Arial', 'Helvetica', 'DejaVu Sans', sans-serif; text-anchor: end" x="278.77375" y="130.128648" transform="rotate(-0 278.77375 130.128648)">4500</text>
     </g>
    </g>
    <g id="ytick_10">
     <g id="line2d_51">
      <path d="M 285.77375 94.849675 
L 508.13875 94.849675 
" clip-path="url(#pc81c257688)" style="fill: none; stroke: #b0b0b0; stroke-opacity: 0.25; stroke-width: 0.8; stroke-linecap: square"/>
     </g>
     <g id="line2d_52">
      <g>
       <use xlink:href="#mef4928baba" x="285.77375" y="94.849675" style="stroke: #000000; stroke-width: 0.8"/>
      </g>
     </g>
     <g id="text_30">
      <text style="font-size: 8px; font-family: 'Arial', 'Helvetica', 'DejaVu Sans', sans-serif; text-anchor: end" x="278.77375" y="97.7128" transform="rotate(-0 278.77375 97.7128)">5000</text>
     </g>
    </g>
    <g id="ytick_11">
     <g id="line2d_53">
      <path d="M 285.77375 62.433828 
L 508.13875 62.433828 
" clip-path="url(#pc81c257688)" style="fill: none; stroke: #b0b0b0; stroke-opacity: 0.25; stroke-width: 0.8; stroke-linecap: square"/>
     </g>
     <g id="line2d_54">
      <g>
       <use xlink:href="#mef4928baba" x="285.77375" y="62.433828" style="stroke: #000000; stroke-width: 0.8"/>
      </g>
     </g>
     <g id="text_31">
      <text style="font-size: 8px; font-family: 'Arial', 'Helvetica', 'DejaVu Sans', sans-serif; text-anchor: end" x="278.77375" y="65.296953" transform="rotate(-0 278.77375 65.296953)">5500</text>
     </g>
    </g>
    <g id="ytick_12">
     <g id="line2d_55">
      <path d="M 285.77375 30.01798 
L 508.13875 30.01798 
" clip-path="url(#pc81c257688)" style="fill: none; stroke: #b0b0b0; stroke-opacity: 0.25; stroke-width: 0.8; stroke-linecap: square"/>
     </g>
     <g id="line2d_56">
      <g>
       <use xlink:href="#mef4928baba" x="285.77375" y="30.01798" style="stroke: #000000; stroke-width: 0.8"/>
      </g>
     </g>
     <g id="text_32">
      <text style="font-size: 8px; font-family: 'Arial', 'Helvetica', 'DejaVu Sans', sans-serif; text-anchor: end" x="278.77375" y="32.881105" transform="rotate(-0 278.77375 32.881105)">6000</text>
     </g>
    </g>
   </g>
   <g id="line2d_57">
    <path d="M 295.88125 187.31383 
L 352.48325 183.523685 
L 417.17125 179.711627 
L 498.03125 175.760526 
" clip-path="url(#pc81c257688)" style="fill: none; stroke: #0072b2; stroke-width: 1.5; stroke-linecap: square"/>
    <g clip-path="url(#pc81c257688)">
     <use xlink:href="#m5e87b72316" x="295.88125" y="187.31383" style="fill: #0072b2; stroke: #0072b2"/>
     <use xlink:href="#m5e87b72316" x="352.48325" y="183.523685" style="fill: #0072b2; stroke: #0072b2"/>
     <use xlink:href="#m5e87b72316" x="417.17125" y="179.711627" style="fill: #0072b2; stroke: #0072b2"/>
     <use xlink:href="#m5e87b72316" x="498.03125" y="175.760526" style="fill: #0072b2; stroke: #0072b2"/>
    </g>
   </g>
   <g id="line2d_58">
    <path d="M 295.88125 75.090343 
L 352.48325 64.503015 
L 417.17125 52.728322 
L 498.03125 38.654278 
" clip-path="url(#pc81c257688)" style="fill: none; stroke: #d55e00; stroke-width: 1.5; stroke-linecap: square"/>
    <g clip-path="url(#pc81c257688)">
     <use xlink:href="#m38266cd602" x="295.88125" y="75.090343" style="fill: #d55e00; stroke: #d55e00"/>
     <use xlink:href="#m38266cd602" x="352.48325" y="64.503015" style="fill: #d55e00; stroke: #d55e00"/>
     <use xlink:href="#m38266cd602" x="417.17125" y="52.728322" style="fill: #d55e00; stroke: #d55e00"/>
     <use xlink:href="#m38266cd602" x="498.03125" y="38.654278" style="fill: #d55e00; stroke: #d55e00"/>
    </g>
   </g>
   <g id="line2d_59">
    <path d="M 295.88125 57.312035 
L 352.48325 49.091716 
L 417.17125 39.310559 
L 498.03125 28.03542 
" clip-path="url(#pc81c257688)" style="fill: none; stroke: #009e73; stroke-width: 1.5; stroke-linecap: square"/>
    <g clip-path="url(#pc81c257688)">
     <use xlink:href="#mbd6c1cfee0" x="295.88125" y="57.312035" style="fill: #009e73; stroke: #009e73"/>
     <use xlink:href="#mbd6c1cfee0" x="352.48325" y="49.091716" style="fill: #009e73; stroke: #009e73"/>
     <use xlink:href="#mbd6c1cfee0" x="417.17125" y="39.310559" style="fill: #009e73; stroke: #009e73"/>
     <use xlink:href="#mbd6c1cfee0" x="498.03125" y="28.03542" style="fill: #009e73; stroke: #009e73"/>
    </g>
   </g>
   <g id="line2d_60">
    <path d="M 295.88125 58.770748 
L 352.48325 50.55043 
L 417.17125 40.769272 
L 498.03125 29.494133 
" clip-path="url(#pc81c257688)" style="fill: none; stroke: #e69f00; stroke-width: 1.5; stroke-linecap: square"/>
    <g clip-path="url(#pc81c257688)">
     <use xlink:href="#m57b447d436" x="295.88125" y="58.770748" style="fill: #e69f00; stroke: #e69f00"/>
     <use xlink:href="#m57b447d436" x="352.48325" y="50.55043" style="fill: #e69f00; stroke: #e69f00"/>
     <use xlink:href="#m57b447d436" x="417.17125" y="40.769272" style="fill: #e69f00; stroke: #e69f00"/>
     <use xlink:href="#m57b447d436" x="498.03125" y="29.494133" style="fill: #e69f00; stroke: #e69f00"/>
    </g>
   </g>
   <g id="patch_7">
    <path d="M 285.77375 195.27775 
L 285.77375 20.0715 
" style="fill: none; stroke: #000000; stroke-width: 0.8; stroke-linejoin: miter; stroke-linecap: square"/>
   </g>
   <g id="patch_8">
    <path d="M 285.77375 195.27775 
L 508.13875 195.27775 
" style="fill: none; stroke: #000000; stroke-width: 0.8; stroke-linejoin: miter; stroke-linecap: square"/>
   </g>
   <g id="text_33">
    <text style="font-size: 9.6px; font-family: 'Arial', 'Helvetica', 'DejaVu Sans', sans-serif; text-anchor: middle" x="396.95625" y="14.0715" transform="rotate(-0 396.95625 14.0715)">Platform revenue</text>
   </g>
   <g id="legend_2">
    <g id="patch_9">
     <path d="M 465.268125 133.562594 
L 503.23875 133.562594 
Q 504.63875 133.562594 504.63875 132.162594 
L 504.63875 83.186656 
Q 504.63875 81.786656 503.23875 81.786656 
L 465.268125 81.786656 
Q 463.868125 81.786656 463.868125 83.186656 
L 463.868125 132.162594 
Q 463.868125 133.562594 465.268125 133.562594 
z
" style="fill: #ffffff; opacity: 0.8; stroke: #cccccc; stroke-linejoin: miter"/>
    </g>
    <g id="text_34">
     <text style="font-size: 7px; font-family: 'Arial', 'Helvetica', 'DejaVu Sans', sans-serif; text-anchor: start" x="470.636797" y="89.682437" transform="rotate(-0 470.636797 89.682437)">Capacity</text>
    </g>
    <g id="line2d_61">
     <path d="M 466.668125 97.216187 
L 473.668125 97.216187 
L 480.668125 97.216187 
" style="fill: none; stroke: #0072b2; stroke-width: 1.5; stroke-linecap: square"/>
     <g>
      <use xlink:href="#m5e87b72316" x="473.668125" y="97.216187" style="fill: #0072b2; stroke: #0072b2"/>
     </g>
    </g>
    <g id="text_35">
     <text style="font-size: 7px; font-family: 'Arial', 'Helvetica', 'DejaVu Sans', sans-serif; text-anchor: start" x="486.268125" y="99.666187" transform="rotate(-0 486.268125 99.666187)">500</text>
    </g>
    <g id="line2d_62">
     <path d="M 466.668125 107.117906 
L 473.668125 107.117906 
L 480.668125 107.117906 
" style="fill: none; stroke: #d55e00; stroke-width: 1.5; stroke-linecap: square"/>
     <g>
      <use xlink:href="#m38266cd602" x="473.668125" y="107.117906" style="fill: #d55e00; stroke: #d55e00"/>
     </g>
    </g>
    <g id="text_36">
     <text style="font-size: 7px; font-family: 'Arial', 'Helvetica', 'DejaVu Sans', sans-serif; text-anchor: start" x="486.268125" y="109.567906" transform="rotate(-0 486.268125 109.567906)">1000</text>
    </g>
    <g id="line2d_63">
     <path d="M 466.668125 117.019625 
L 473.668125 117.019625 
L 480.668125 117.019625 
" style="fill: none; stroke: #009e73; stroke-width: 1.5; stroke-linecap: square"/>
     <g>
      <use xlink:href="#mbd6c1cfee0" x="473.668125" y="117.019625" style="fill: #009e73; stroke: #009e73"/>
     </g>
    </g>
    <g id="text_37">
     <text style="font-size: 7px; font-family: 'Arial', 'Helvetica', 'DejaVu Sans', sans-serif; text-anchor: start" x="486.268125" y="119.469625" transform="rotate(-0 486.268125 119.469625)">1500</text>
    </g>
    <g id="line2d_64">
     <path d="M 466.668125 126.921344 
L 473.668125 126.921344 
L 480.668125 126.921344 
" style="fill: none; stroke: #e69f00; stroke-width: 1.5; stroke-linecap: square"/>
     <g>
      <use xlink:href="#m57b447d436" x="473.668125" y="126.921344" style="fill: #e69f00; stroke: #e69f00"/>
     </g>
    </g>
    <g id="text_38">
     <text style="font-size: 7px; font-family: 'Arial', 'Helvetica', 'DejaVu Sans', sans-serif; text-anchor: start" x="486.268125" y="129.371344" transform="rotate(-0 486.268125 129.371344)">2000</text>
    </g>
   </g>
  </g>
 </g>
 <defs>
  <clipPath id="p8916fe6a3a">
   <rect x="29.76875" y="20.0715" width="222.365" height="175.20625"/>
  </clipPath>
  <clipPath id="pc81c257688">
   <rect x="285.77375" y="20.0715" width="222.365" height="175.20625"/>
  </clipPath>
 </defs>
</svg>
