<?xml version="1.0" encoding="utf-8" standalone="no"?>
<!DOCTYPE svg PUBLIC "-//W3C//DTD SVG 1.1//EN"
  "http://www.w3.org/Graphics/SVG/1.1/DTD/svg11.dtd">
<svg xmlns:xlink="http://www.w3.org/1999/xlink" width="393.84pt" height="191.808pt" viewBox="0 0 393.84 191.808" xmlns="http://www.w3.org/2000/svg" version="1.1">
 <metadata>
  <rdf:RDF xmlns:dc="http://purl.org/dc/elements/1.1/" xmlns:cc="http://creativecommons.org/ns#" xmlns:rdf="http://www.w3.org/1999/02/22-rdf-syntax-ns#">
   <cc:Work>
    <dc:type rdf:resource="http://purl.org/dc/dcmitype/StillImage"/>
    <dc:date>2026-06-10T18:44:42.307500</dc:date>
    <dc:format>image/svg+xml</dc:format>
    <dc:creator>
     <cc:Agent>
      <dc:title>Matplotlib v3.10.8, https://matplotlib.org/</dc:title>
     </cc:Agent>
    </dc:creator>
   </cc:Work>
  </rdf:RDF>
 </metadata>
 <defs>
  <style type="text/css">*{stroke-linejoin: round; stroke-linecap: butt}</style>
 </defs>
 <g id="figure_1">
  <g id="patch_1">
   <path d="M 0 191.808 
L 393.84 191.808 
L 393.84 0 
L 0 0 
z
" style="fill: #ffffff"/>
  </g>
  <g id="axes_1">
   <g id="patch_2">
    <path d="M 26.172 99.45216 
L 121.032 99.45216 
Q 128.6208 99.45216 128.6208 95.904 
L 128.6208 63.97056 
Q 128.6208 60.4224 121.032 60.4224 
L 26.172 60.4224 
Q 18.5832 60.4224 18.5832 63.97056 
L 18.5832 95.904 
Q 18.5832 99.45216 26.172 99.45216 
z
" clip-path="url(#pf5bae2c899)" style="fill: #d7eaf7; opacity: 0.92; stroke: #333333; stroke-linejoin: miter"/>
   </g>
   <g id="patch_3">
    <path d="M 151.3872 99.45216 
L 246.2472 99.45216 
Q 253.836 99.45216 253.836 95.904 
L 253.836 63.97056 
Q 253.836 60.4224 246.2472 60.4224 
L 151.3872 60.4224 
Q 143.7984 60.4224 143.7984 63.97056 
L 143.7984 95.904 
Q 143.7984 99.45216 151.3872 99.45216 
z
" clip-path="url(#pf5bae2c899)" style="fill: #ddefd5; opacity: 0.92; stroke: #333333; stroke-linejoin: miter"/>
   </g>
   <g id="patch_4">
    <path d="M 276.6024 99.45216 
L 371.4624 99.45216 
Q 379.0512 99.45216 379.0512 95.904 
L 379.0512 63.97056 
Q 379.0512 60.4224 371.4624 60.4224 
L 276.6024 60.4224 
Q 269.0136 60.4224 269.0136 63.97056 
L 269.0136 95.904 
Q 269.0136 99.45216 276.6024 99.45216 
z
" clip-path="url(#pf5bae2c899)" style="fill: #f8d7da; opacity: 0.92; stroke: #333333; stroke-linejoin: miter"/>
   </g>
   <g id="patch_5">
    <path d="M 123.029248 79.93728 
Q 136.209534 79.93728 148.271786 79.93728 
" clip-path="url(#pf5bae2c899)" style="fill: none; stroke: #333333; stroke-linecap: round"/>
    <path d="M 143.871786 77.73728 
L 148.271786 79.93728 
L 143.871786 82.13728 
z
" clip-path="url(#pf5bae2c899)" style="fill: #333333; stroke: #333333; stroke-linecap: round"/>
   </g>
   <g id="patch_6">
    <path d="M 248.244448 79.93728 
Q 261.424734 79.93728 273.486986 79.93728 
" clip-path="url(#pf5bae2c899)" style="fill: none; stroke: #333333; stroke-linecap: round"/>
    <path d="M 269.086986 77.73728 
L 273.486986 79.93728 
L 269.086986 82.13728 
z
" clip-path="url(#pf5bae2c899)" style="fill: #333333; stroke: #333333; stroke-linecap: round"/>
   </g>
   <g id="line2d_1">
    <path d="M 322.1352 95.904 
L 322.1352 140.256 
L 75.4992 140.256 
L 75.4992 95.904 
" clip-path="url(#pf5bae2c899)" style="fill: none; stroke: #555555; stroke-linecap: square"/>
   </g>
   <g id="text_1">
    <text style="font-size: 8px; font-family: 'Arial', 'Helvetica', 'DejaVu Sans', sans-serif" transform="translate(53.816375 77.66928)">Upper map</text>
    <text style="font-size: 8px; font-family: 'Arial', 'Helvetica', 'DejaVu Sans', sans-serif" transform="translate(59.00825 86.24778)">fP(w | x)</text>
   </g>
   <g id="text_2">
    <text style="font-size: 8px; font-family: 'Arial', 'Helvetica', 'DejaVu Sans', sans-serif" transform="translate(178.142825 77.66928)">Middle map</text>
    <text style="font-size: 8px; font-family: 'Arial', 'Helvetica', 'DejaVu Sans', sans-serif" transform="translate(179.329075 86.24778)">fI(p,g | w,s)</text>
   </g>
   <g id="text_3">
    <text style="font-size: 8px; font-family: 'Arial', 'Helvetica', 'DejaVu Sans', sans-serif" transform="translate(304.246775 77.66928)">Lower map</text>
    <text style="font-size: 8px; font-family: 'Arial', 'Helvetica', 'DejaVu Sans', sans-serif" transform="translate(303.21115 86.24778)">fU(s | p,g,q)</text>
   </g>
   <g id="text_4">
    <text style="font-size: 8px; font-family: 'Arial', 'Helvetica', 'DejaVu Sans', sans-serif; text-anchor: middle" x="136.2096" y="69.2928" transform="rotate(-0 136.2096 69.2928)">w</text>
   </g>
   <g id="text_5">
    <text style="font-size: 8px; font-family: 'Arial', 'Helvetica', 'DejaVu Sans', sans-serif; text-anchor: middle" x="261.4248" y="69.2928" transform="rotate(-0 261.4248 69.2928)">p,g,q</text>
   </g>
   <g id="text_6">
    <text style="font-size: 8px; font-family: 'Arial', 'Helvetica', 'DejaVu Sans', sans-serif; text-anchor: middle" x="196.92" y="131.56968" transform="rotate(-0 196.92 131.56968)">shares and effective demand</text>
   </g>
   <g id="text_7">
    <text style="font-size: 8px; font-family: 'Arial', 'Helvetica', 'DejaVu Sans', sans-serif; text-anchor: middle" x="196.92" y="159.77088" transform="rotate(-0 196.92 159.77088)">A candidate response is accepted only with small unilateral-improvement regret.</text>
   </g>
  </g>
 </g>
 <defs>
  <clipPath id="pf5bae2c899">
   <rect x="7.2" y="7.2" width="379.44" height="177.408"/>
  </clipPath>
 </defs>
</svg>
