<svg xmlns="http://www.w3.org/2000/svg" width="1600" height="980" viewBox="0 0 1600 980">
<defs><marker id="arrow-258B47" markerWidth="12" markerHeight="12" refX="10" refY="6" orient="auto" markerUnits="strokeWidth"><path d="M2,2 L10,6 L2,10 Z" fill="#258B47"/></marker><marker id="arrow-0B73C7" markerWidth="12" markerHeight="12" refX="10" refY="6" orient="auto" markerUnits="strokeWidth"><path d="M2,2 L10,6 L2,10 Z" fill="#0B73C7"/></marker><marker id="arrow-F39A12" markerWidth="12" markerHeight="12" refX="10" refY="6" orient="auto" markerUnits="strokeWidth"><path d="M2,2 L10,6 L2,10 Z" fill="#F39A12"/></marker><marker id="arrow-7042A5" markerWidth="12" markerHeight="12" refX="10" refY="6" orient="auto" markerUnits="strokeWidth"><path d="M2,2 L10,6 L2,10 Z" fill="#7042A5"/></marker><marker id="arrow-8B949E" markerWidth="12" markerHeight="12" refX="10" refY="6" orient="auto" markerUnits="strokeWidth"><path d="M2,2 L10,6 L2,10 Z" fill="#8B949E"/></marker><filter id="soft-shadow" x="-15%" y="-20%" width="130%" height="150%"><feDropShadow dx="0" dy="8" stdDeviation="8" flood-color="#17324A" flood-opacity="0.10"/></filter></defs>
<rect x="0" y="0" width="1600" height="980" rx="0" fill="white"></rect>
<text x="218" y="52" font-size="27" font-weight="800" fill="#0D5C2D" text-anchor="middle" font-family="Arial, Helvetica, sans-serif">Users</text>
<text x="218" y="84" font-size="18" font-weight="800" fill="#0D5C2D" text-anchor="middle" font-family="Arial, Helvetica, sans-serif">(Applications / API Loads)</text>
<text x="796" y="52" font-size="27" font-weight="800" fill="#123B63" text-anchor="middle" font-family="Arial, Helvetica, sans-serif">Cloud Platform / API Intermediary</text>
<text x="796" y="84" font-size="18" font-weight="800" fill="#123B63" text-anchor="middle" font-family="Arial, Helvetica, sans-serif">(OpenRouter-like Aggregator)</text>
<text x="1374" y="52" font-size="27" font-weight="800" fill="#4D2378" text-anchor="middle" font-family="Arial, Helvetica, sans-serif">Model Manufacturers / Suppliers</text>
<text x="1374" y="84" font-size="18" font-weight="800" fill="#4D2378" text-anchor="middle" font-family="Arial, Helvetica, sans-serif">(LLM APIs &amp; Compute Grid)</text>
<rect x="48" y="170" width="340" height="112" rx="26" fill="white" stroke="#D7E0EA" stroke-width="1.5"></rect><rect x="76" y="200" width="58" height="42" rx="14" fill="#F3FAF5" stroke="#258B47" stroke-width="2"></rect><path d="M93 242 L88 254 L106 242" stroke="#258B47" stroke-width="2" fill="none" stroke-linecap="round" stroke-linejoin="round" marker-end="url(#arrow-258B47)"></path><circle cx="96" cy="221" r="3" fill="#258B47"></circle><circle cx="107" cy="221" r="3" fill="#258B47"></circle><circle cx="118" cy="221" r="3" fill="#258B47"></circle><text x="160" y="214" font-size="22" font-weight="800" fill="#258B47" text-anchor="start" font-family="Arial, Helvetica, sans-serif">Chat Apps</text><text x="160" y="243" font-size="16" font-weight="500" fill="#5F6F82" text-anchor="start" font-family="Arial, Helvetica, sans-serif"><tspan x="160" dy="0">consumer queries</tspan><tspan x="160" dy="20">elastic timing</tspan></text>
<rect x="48" y="302" width="340" height="112" rx="26" fill="white" stroke="#D7E0EA" stroke-width="1.5"></rect><rect x="76" y="332" width="62" height="46" rx="8" fill="#F3F7FC" stroke="#4169A8" stroke-width="2"></rect><text x="92" y="362" font-size="22" font-weight="800" fill="#4169A8" text-anchor="middle" font-family="Arial, Helvetica, sans-serif">&gt;</text><line x1="108" y1="362" x2="124" y2="362" stroke="#4169A8" stroke-width="3"></line><text x="160" y="346" font-size="22" font-weight="800" fill="#4169A8" text-anchor="start" font-family="Arial, Helvetica, sans-serif">Coding Agents</text><text x="160" y="375" font-size="16" font-weight="500" fill="#5F6F82" text-anchor="start" font-family="Arial, Helvetica, sans-serif"><tspan x="160" dy="0">batch jobs</tspan><tspan x="160" dy="20">retry and fallback</tspan></text>
<rect x="48" y="434" width="340" height="112" rx="26" fill="white" stroke="#D7E0EA" stroke-width="1.5"></rect><circle cx="88" cy="476" r="8" fill="#F3FAF5" stroke="#23866F"></circle><circle cx="126" cy="476" r="8" fill="#F3FAF5" stroke="#23866F"></circle><circle cx="107" cy="508" r="8" fill="#F3FAF5" stroke="#23866F"></circle><path d="M96 476 L118 476 M92 482 L103 501 M122 482 L111 501" stroke="#23866F" stroke-width="2.2" fill="none"></path><text x="160" y="478" font-size="22" font-weight="800" fill="#23866F" text-anchor="start" font-family="Arial, Helvetica, sans-serif">Enterprise APIs</text><text x="160" y="507" font-size="16" font-weight="500" fill="#5F6F82" text-anchor="start" font-family="Arial, Helvetica, sans-serif"><tspan x="160" dy="0">workflow calls</tspan><tspan x="160" dy="20">SLA-sensitive demand</tspan></text>
<rect x="48" y="566" width="340" height="112" rx="26" fill="white" stroke="#D7E0EA" stroke-width="1.5"></rect><text x="81" y="629" font-size="32" font-weight="800" fill="#2E8B57" text-anchor="middle" font-family="Arial, Helvetica, sans-serif">{</text><text x="107" y="629" font-size="28" font-weight="800" fill="#2E8B57" text-anchor="middle" font-family="Arial, Helvetica, sans-serif">/</text><text x="133" y="629" font-size="32" font-weight="800" fill="#2E8B57" text-anchor="middle" font-family="Arial, Helvetica, sans-serif">}</text><text x="160" y="610" font-size="22" font-weight="800" fill="#2E8B57" text-anchor="start" font-family="Arial, Helvetica, sans-serif">Developers / SDK</text><text x="160" y="639" font-size="16" font-weight="500" fill="#5F6F82" text-anchor="start" font-family="Arial, Helvetica, sans-serif"><tspan x="160" dy="0">client calls</tspan><tspan x="160" dy="20">model-time choice</tspan></text>
<path d="M535 290 C548 218 615 170 690 186 C727 123 827 108 882 170 C932 161 987 194 998 249 C1059 258 1094 309 1078 364 C1065 409 1024 432 976 432 L592 432 C534 432 490 393 490 340 C490 315 505 296 535 290 Z" fill="#EAF6FF" stroke="#5DA6E8" stroke-width="5" filter="url(#soft-shadow)"></path><rect x="594" y="280" width="70" height="104" rx="7" fill="#183D63" stroke="#0D2B47" stroke-width="2"></rect><rect x="678" y="260" width="82" height="124" rx="7" fill="#183D63" stroke="#0D2B47" stroke-width="2"></rect><rect x="788" y="302" width="146" height="74" rx="8" fill="white" stroke="#7CB8E6" stroke-width="3"></rect><path d="M815 350 L856 314 L856 337 L906 337" stroke="#0B73C7" stroke-width="4" fill="none" marker-end="url(#arrow-0B73C7)"></path><circle cx="622" cy="321" r="6" fill="#55D58A"></circle><circle cx="706" cy="302" r="6" fill="#55D58A"></circle><circle cx="706" cy="344" r="6" fill="#55D58A"></circle><text x="784" y="226" font-size="21" font-weight="800" fill="#123B63" text-anchor="middle" font-family="Arial, Helvetica, sans-serif">OpenRouter-like</text><text x="784" y="255" font-size="18" font-weight="700" fill="#123B63" text-anchor="middle" font-family="Arial, Helvetica, sans-serif">API Intermediary</text>
<rect x="504" y="466" width="132" height="92" rx="16" fill="white" stroke="#5DA6E8" stroke-width="1.7"></rect><text x="570" y="501" font-size="20" font-weight="800" fill="#0B73C7" text-anchor="middle" font-family="Arial, Helvetica, sans-serif">DB</text><text x="570" y="532" font-size="14" font-weight="600" fill="#5F6F82" text-anchor="middle" font-family="Arial, Helvetica, sans-serif">usage data</text>
<rect x="660" y="466" width="132" height="92" rx="16" fill="white" stroke="#5DA6E8" stroke-width="1.7"></rect><text x="726" y="501" font-size="20" font-weight="800" fill="#0B73C7" text-anchor="middle" font-family="Arial, Helvetica, sans-serif">FC</text><text x="726" y="532" font-size="14" font-weight="600" fill="#5F6F82" text-anchor="middle" font-family="Arial, Helvetica, sans-serif">forecast</text>
<rect x="816" y="466" width="132" height="92" rx="16" fill="white" stroke="#5DA6E8" stroke-width="1.7"></rect><text x="882" y="501" font-size="20" font-weight="800" fill="#0B73C7" text-anchor="middle" font-family="Arial, Helvetica, sans-serif">OPT</text><text x="882" y="532" font-size="14" font-weight="600" fill="#5F6F82" text-anchor="middle" font-family="Arial, Helvetica, sans-serif">pricing</text>
<rect x="972" y="466" width="132" height="92" rx="16" fill="white" stroke="#5DA6E8" stroke-width="1.7"></rect><text x="1038" y="501" font-size="20" font-weight="800" fill="#0B73C7" text-anchor="middle" font-family="Arial, Helvetica, sans-serif">QoS</text><text x="1038" y="532" font-size="14" font-weight="600" fill="#5F6F82" text-anchor="middle" font-family="Arial, Helvetica, sans-serif">monitor</text>
<rect x="1208" y="178" width="332" height="450" rx="28" fill="white" stroke="#D7E0EA" stroke-width="1.5"></rect><text x="1374" y="218" font-size="21" font-weight="800" fill="#4D2378" text-anchor="middle" font-family="Arial, Helvetica, sans-serif">Model API Providers</text><rect x="1228" y="250" width="150" height="44" rx="13" fill="#FBFAFF" stroke="#D9C9EF" stroke-width="1.3"></rect><circle cx="1250" cy="272" r="7" fill="#2B76D2"></circle><text x="1270" y="278" font-size="14" font-weight="700" fill="#17202A" text-anchor="start" font-family="Arial, Helvetica, sans-serif">DeepSeek</text><rect x="1384" y="250" width="150" height="44" rx="13" fill="#FBFAFF" stroke="#D9C9EF" stroke-width="1.3"></rect><circle cx="1406" cy="272" r="7" fill="#C06B3E"></circle><text x="1426" y="278" font-size="14" font-weight="700" fill="#17202A" text-anchor="start" font-family="Arial, Helvetica, sans-serif">Claude</text><rect x="1228" y="304" width="150" height="44" rx="13" fill="#FBFAFF" stroke="#D9C9EF" stroke-width="1.3"></rect><circle cx="1250" cy="326" r="7" fill="#18A67A"></circle><text x="1270" y="332" font-size="14" font-weight="700" fill="#17202A" text-anchor="start" font-family="Arial, Helvetica, sans-serif">GPT / OpenAI</text><rect x="1384" y="304" width="150" height="44" rx="13" fill="#FBFAFF" stroke="#D9C9EF" stroke-width="1.3"></rect><circle cx="1406" cy="326" r="7" fill="#8E5BD3"></circle><text x="1426" y="332" font-size="14" font-weight="700" fill="#17202A" text-anchor="start" font-family="Arial, Helvetica, sans-serif">Gemini / Qwen</text><line x1="1236" y1="396" x2="1512" y2="396" stroke="#E4E9F0" stroke-width="2"></line><rect x="1236" y="412" width="276" height="78" rx="16" fill="#F9FBFE" stroke="#DFE7EF" stroke-width="1.2"></rect><text x="1266" y="446" font-size="18" font-weight="800" fill="#4D2378" text-anchor="middle" font-family="Arial, Helvetica, sans-serif">GPU</text><text x="1314" y="435" font-size="15" font-weight="500" fill="#5F6F82" text-anchor="start" font-family="Arial, Helvetica, sans-serif"><tspan x="1314" dy="0">GPU pools, cloud regions</tspan><tspan x="1314" dy="19">API quota and SLA capacity</tspan></text><line x1="1236" y1="504" x2="1512" y2="504" stroke="#E4E9F0" stroke-width="2"></line><rect x="1236" y="518" width="276" height="78" rx="16" fill="#F9FBFE" stroke="#DFE7EF" stroke-width="1.2"></rect><text x="1266" y="552" font-size="22" font-weight="800" fill="#4D2378" text-anchor="middle" font-family="Arial, Helvetica, sans-serif">c</text><text x="1314" y="541" font-size="15" font-weight="500" fill="#5F6F82" text-anchor="start" font-family="Arial, Helvetica, sans-serif"><tspan x="1314" dy="0">marginal cost, latency</tspan><tspan x="1314" dy="19">availability and incident state</tspan></text>
<rect x="462" y="606" width="668" height="146" rx="24" fill="white" stroke="#0B73C7" stroke-width="2" stroke-dasharray="10 8"></rect><text x="796" y="642" font-size="22" font-weight="800" fill="#123B63" text-anchor="middle" font-family="Arial, Helvetica, sans-serif">Dynamic Pricing &amp; Stackelberg Game</text><rect x="454" y="670" width="116" height="54" rx="14" fill="#F9FCFF" stroke="#B8D9F3" stroke-width="1.3"></rect><text x="512" y="695" font-size="17" font-weight="800" fill="#0B73C7" text-anchor="middle" font-family="Arial, Helvetica, sans-serif">D_jt</text><text x="512" y="721" font-size="13" font-weight="600" fill="#5F6F82" text-anchor="middle" font-family="Arial, Helvetica, sans-serif">Demand</text><rect x="620" y="670" width="116" height="54" rx="14" fill="#F9FCFF" stroke="#B8D9F3" stroke-width="1.3"></rect><text x="678" y="695" font-size="17" font-weight="800" fill="#0B73C7" text-anchor="middle" font-family="Arial, Helvetica, sans-serif">p_jt</text><text x="678" y="721" font-size="13" font-weight="600" fill="#5F6F82" text-anchor="middle" font-family="Arial, Helvetica, sans-serif">Retail price</text><rect x="786" y="670" width="116" height="54" rx="14" fill="#F9FCFF" stroke="#B8D9F3" stroke-width="1.3"></rect><text x="844" y="695" font-size="17" font-weight="800" fill="#0B73C7" text-anchor="middle" font-family="Arial, Helvetica, sans-serif">g_jt</text><text x="844" y="721" font-size="13" font-weight="600" fill="#5F6F82" text-anchor="middle" font-family="Arial, Helvetica, sans-serif">Capacity route</text><rect x="952" y="670" width="116" height="54" rx="14" fill="#F9FCFF" stroke="#B8D9F3" stroke-width="1.3"></rect><text x="1010" y="695" font-size="17" font-weight="800" fill="#0B73C7" text-anchor="middle" font-family="Arial, Helvetica, sans-serif">profit, q</text><text x="1010" y="721" font-size="13" font-weight="600" fill="#5F6F82" text-anchor="middle" font-family="Arial, Helvetica, sans-serif">Profit / QoS</text><path d="M570 697 L620 697" stroke="#8B949E" stroke-width="2" fill="none" stroke-linecap="round" stroke-linejoin="round" marker-end="url(#arrow-8B949E)"></path><path d="M736 697 L786 697" stroke="#8B949E" stroke-width="2" fill="none" stroke-linecap="round" stroke-linejoin="round" marker-end="url(#arrow-8B949E)"></path><path d="M902 697 L952 697" stroke="#8B949E" stroke-width="2" fill="none" stroke-linecap="round" stroke-linejoin="round" marker-end="url(#arrow-8B949E)"></path>
<rect x="522" y="804" width="548" height="96" rx="24" fill="#FFFEFF" stroke="#B897DE" stroke-width="2" stroke-dasharray="10 8"></rect><text x="796" y="835" font-size="20" font-weight="800" fill="#7042A5" text-anchor="middle" font-family="Arial, Helvetica, sans-serif">Iterative Feedback (Game Equilibrium)</text><text x="640" y="874" font-size="15" font-weight="700" fill="#5F6F82" text-anchor="middle" font-family="Arial, Helvetica, sans-serif">update demand</text><rect x="742" y="852" width="108" height="34" rx="17" fill="#F7F1FF" stroke="#C8A8E8" stroke-width="1.2"></rect><text x="796" y="876" font-size="19" font-weight="800" fill="#7042A5" text-anchor="middle" font-family="Arial, Helvetica, sans-serif">SUE / SPE</text><text x="948" y="874" font-size="15" font-weight="700" fill="#5F6F82" text-anchor="middle" font-family="Arial, Helvetica, sans-serif">update price &amp; routing</text>
<path d="M392 300 L500 300" stroke="#258B47" stroke-width="3.0" fill="none" stroke-linecap="round" stroke-linejoin="round" marker-end="url(#arrow-258B47)"></path>
<rect x="352" y="236" width="224" height="58" rx="12" fill="white" stroke="#E1E8F0" stroke-width="1.2"></rect><text x="464" y="260" font-size="17" font-weight="800" fill="#258B47" text-anchor="middle" font-family="Arial, Helvetica, sans-serif">Information</text><text x="464" y="283" font-size="14" font-weight="600" fill="#5F6F82" text-anchor="middle" font-family="Arial, Helvetica, sans-serif">demand, preference</text>
<path d="M500 386 L392 386" stroke="#0B73C7" stroke-width="3.0" fill="none" stroke-linecap="round" stroke-linejoin="round" marker-end="url(#arrow-0B73C7)"></path>
<rect x="352" y="400" width="224" height="58" rx="12" fill="white" stroke="#E1E8F0" stroke-width="1.2"></rect><text x="464" y="424" font-size="17" font-weight="800" fill="#0B73C7" text-anchor="middle" font-family="Arial, Helvetica, sans-serif">Price / Signals</text><text x="464" y="447" font-size="14" font-weight="600" fill="#5F6F82" text-anchor="middle" font-family="Arial, Helvetica, sans-serif">retail, incentives</text>
<path d="M1208 300 L1088 300" stroke="#258B47" stroke-width="3.0" fill="none" stroke-linecap="round" stroke-linejoin="round" marker-end="url(#arrow-258B47)"></path>
<rect x="1022" y="236" width="224" height="58" rx="12" fill="white" stroke="#E1E8F0" stroke-width="1.2"></rect><text x="1134" y="260" font-size="17" font-weight="800" fill="#258B47" text-anchor="middle" font-family="Arial, Helvetica, sans-serif">Data / Status</text><text x="1134" y="283" font-size="14" font-weight="600" fill="#5F6F82" text-anchor="middle" font-family="Arial, Helvetica, sans-serif">capacity, cost</text>
<path d="M1088 386 L1208 386" stroke="#0B73C7" stroke-width="3.0" fill="none" stroke-linecap="round" stroke-linejoin="round" marker-end="url(#arrow-0B73C7)"></path>
<rect x="1022" y="400" width="224" height="58" rx="12" fill="white" stroke="#E1E8F0" stroke-width="1.2"></rect><text x="1134" y="424" font-size="17" font-weight="800" fill="#0B73C7" text-anchor="middle" font-family="Arial, Helvetica, sans-serif">Price / Contracts</text><text x="1134" y="447" font-size="14" font-weight="600" fill="#5F6F82" text-anchor="middle" font-family="Arial, Helvetica, sans-serif">wholesale, quota</text>
<path d="M796 560 L796 606" stroke="#8B949E" stroke-width="2.3" fill="none" stroke-linecap="round" stroke-linejoin="round" marker-end="url(#arrow-8B949E)"></path>
<path d="M390 618 C430 704 456 786 522 852" stroke="#F39A12" stroke-width="3.4" fill="none" stroke-linecap="round" stroke-linejoin="round" marker-end="url(#arrow-F39A12)" stroke-dasharray="12 10"></path>
<rect x="278" y="747" width="224" height="58" rx="12" fill="white" stroke="#E1E8F0" stroke-width="1.2"></rect><text x="390" y="771" font-size="17" font-weight="800" fill="#F39A12" text-anchor="middle" font-family="Arial, Helvetica, sans-serif">Response</text><text x="390" y="794" font-size="14" font-weight="600" fill="#5F6F82" text-anchor="middle" font-family="Arial, Helvetica, sans-serif">load shifting</text>
<path d="M1210 618 C1166 704 1138 786 1070 852" stroke="#F39A12" stroke-width="3.4" fill="none" stroke-linecap="round" stroke-linejoin="round" marker-end="url(#arrow-F39A12)" stroke-dasharray="12 10"></path>
<rect x="1098" y="747" width="224" height="58" rx="12" fill="white" stroke="#E1E8F0" stroke-width="1.2"></rect><text x="1210" y="771" font-size="17" font-weight="800" fill="#F39A12" text-anchor="middle" font-family="Arial, Helvetica, sans-serif">Token Supply</text><text x="1210" y="794" font-size="14" font-weight="600" fill="#5F6F82" text-anchor="middle" font-family="Arial, Helvetica, sans-serif">quota, capacity</text>
<path d="M796 752 L796 804" stroke="#7042A5" stroke-width="3" fill="none" stroke-linecap="round" stroke-linejoin="round" marker-end="url(#arrow-7042A5)"></path>
<rect x="38" y="928" width="1524" height="40" rx="13" fill="white" stroke="#D7E0EA" stroke-width="1.2"></rect><path d="M92 948 L144 948" stroke="#258B47" stroke-width="3" fill="none" stroke-linecap="round" stroke-linejoin="round" marker-end="url(#arrow-258B47)"></path><text x="170" y="953" font-size="15" font-weight="500" fill="#17202A" text-anchor="start" font-family="Arial, Helvetica, sans-serif">Information Flow</text><path d="M390 948 L442 948" stroke="#0B73C7" stroke-width="3" fill="none" stroke-linecap="round" stroke-linejoin="round" marker-end="url(#arrow-0B73C7)"></path><text x="468" y="953" font-size="15" font-weight="500" fill="#17202A" text-anchor="start" font-family="Arial, Helvetica, sans-serif">Price / Signal Flow</text><path d="M710 948 L762 948" stroke="#F39A12" stroke-width="3" fill="none" stroke-linecap="round" stroke-linejoin="round" marker-end="url(#arrow-F39A12)"></path><text x="788" y="953" font-size="15" font-weight="500" fill="#17202A" text-anchor="start" font-family="Arial, Helvetica, sans-serif">Token / Capacity Flow</text><path d="M1058 948 L1110 948" stroke="#7042A5" stroke-width="3" fill="none" stroke-linecap="round" stroke-linejoin="round" marker-end="url(#arrow-7042A5)"></path><text x="1136" y="953" font-size="15" font-weight="500" fill="#17202A" text-anchor="start" font-family="Arial, Helvetica, sans-serif">Feedback / Iteration</text>
</svg>